<?xml version="1.0" encoding="utf-8"?>
<!-- Generator: Adobe Illustrator 26.5.0, SVG Export Plug-In . SVG Version: 6.00 Build 0)  -->
<svg version="1.1"
	 id="svg8" xmlns:sodipodi="http://sodipodi.sourceforge.net/DTD/sodipodi-0.dtd"
	 xmlns:inkscape="http://www.inkscape.org/namespaces/inkscape"
	 sodipodi:docname="wr-square.svg"
	 xmlns="http://www.w3.org/2000/svg" x="0px" y="0px" viewBox="0 0 2048 2048"
	 style="enable-background:new 0 0 2048 2048;" xml:space="preserve">
<style type="text/css">
	.st0{display:none;}
	.st1{display:inline;fill:url(#path945_00000046326734270430375020000003035131874680504725_);}
	.st2{fill-rule:evenodd;clip-rule:evenodd;fill:url(#rect1455_00000004541144850494203370000016752173566998255545_);}
	.st3{fill:#1B2347;stroke:#1B2347;stroke-width:2.0564;}
	.st4{fill:#1B2347;stroke:#1B2347;stroke-width:2.0597;stroke-miterlimit:15.1181;}
	.st5{fill:#FFFFFF;}
	.st6{fill:#D4DBFA;}
</style>
<sodipodi:namedview  bordercolor="#666666" borderopacity="1.0" id="base" inkscape:current-layer="layer6" inkscape:cx="1449.7386" inkscape:cy="1079.3196" inkscape:document-rotation="0" inkscape:document-units="px" inkscape:guide-bbox="true" inkscape:object-nodes="false" inkscape:pageopacity="0.0" inkscape:pageshadow="2" inkscape:snap-others="false" inkscape:window-height="1017" inkscape:window-maximized="1" inkscape:window-width="1920" inkscape:window-x="-8" inkscape:window-y="-8" inkscape:zoom="0.2798316" objecttolerance="10000" pagecolor="#ffffff" showgrid="false" showguides="true" units="px">

		<sodipodi:guide  id="guide1539" inkscape:color="rgb(0,0,255)" inkscape:label="" inkscape:locked="false" orientation="0,1" position="-251.50543,270.93333">
		</sodipodi:guide>

		<sodipodi:guide  id="guide1618" inkscape:color="rgb(0,0,255)" inkscape:label="" inkscape:locked="false" orientation="-1,0" position="270.93333,270.93333">
		</sodipodi:guide>
</sodipodi:namedview>
<g id="layer6" inkscape:groupmode="layer" inkscape:label="Circle 1">

		<linearGradient id="rect1455_00000072238117158583691010000011032894424478934947_" gradientUnits="userSpaceOnUse" x1="251.0186" y1="1495.254" x2="90.938" y2="1496.0931" gradientTransform="matrix(7.7724 0 0 -7.7724 -432.7862 12648.2744)">
		<stop  offset="0" style="stop-color:#DFE4FB"/>
		<stop  offset="0.6124" style="stop-color:#C8D1F9"/>
	</linearGradient>

		<rect id="rect1455" x="-1.5" style="fill-rule:evenodd;clip-rule:evenodd;fill:url(#rect1455_00000072238117158583691010000011032894424478934947_);" width="2049.5" height="2048"/>
</g>
<g id="layer2" inkscape:groupmode="layer" inkscape:label="Hand">
	<path id="path35" class="st3" d="M689.8,1196.4c0,0,11,33.1,58,97.7s8.4,132.4,8.4,132.4s-21.3,43.5-7.7,136.8
		c13.6,93.3-27.9,137-27.9,137s-49.2,55.8-254.1,30.1c-159-19.9-377-116.6-467.1-159V2047h1292.3c-175.8-69-276-136.8-319.5-169.2
		c-78.9-58.7-73.7-137.6-62.8-195.8c10.9-58.2,64.9-97.6,90.9-113.2s38.4-14,67.5-39.5c29.1-25.4,49.9-77.4,73.2-114.3
		s108-112.7,124.6-123.6c16.6-10.9,44.7-22.9,54.5-47.3c9.9-24.4-33.8-23.9-42.1-23.9c-7.6,0-26.8,22-30,25.7c5-6,22-29.7-26.6-25.1
		c-55.6,5.2-98.7,69.6-118.4,86.2c-19.7,16.6-82.6,104.9-82.6,104.9s5.7-26.7,9.3-45.4c3.6-18.7,5.7-14.5,13-42.1
		c7.3-27.5,45.4-67.5,48.6-71.7c3.1-4.2,13.5-22.3-17.1-24.9c-30.6-2.6-50.6,30.1-73.2,53.2c-22.6,23.1-71.5,139.6-71.5,139.6
		s-19.1,2.2-36.4-5.5c-17.3-7.7-42.2-33.4-59.9-65c-17.6-31.6,0.4-47.7-13.2-89.2C806.6,1219.5,689.8,1196.4,689.8,1196.4z"/>
</g>
<g id="layer3" inkscape:groupmode="layer" inkscape:label="rOBOT">
	<path id="rect861" class="st4" d="M671,803.5h683.6c122.3,0,221.5,94.7,221.5,211.5v0c0,116.8-99.2,211.5-221.5,211.5H671
		c-122.3,0-221.5-94.7-221.5-211.5v0C449.5,898.2,548.7,803.5,671,803.5z"/>
</g>
<ellipse id="path863" class="st5" cx="687.1" cy="1020.1" rx="116.8" ry="119.5"/>
<circle id="path863-0" class="st6" cx="687.1" cy="1020.1" r="81.6"/>
<ellipse id="path863-6" class="st5" cx="1351.7" cy="1020.1" rx="116.8" ry="119.5"/>
<circle id="path863-0-1" class="st6" cx="1351.7" cy="1020.1" r="81.6"/>
</svg>
